<?xml version="1.0" encoding="UTF-8" standalone="no"?>
<svg
   aria-hidden="true"
   width="750"
   height="342.15283"
   version="1.1"
   id="svg188"
   sodipodi:docname="Logo Sports reÌunis dellois copie.svg"
   inkscape:version="1.2 (dc2aeda, 2022-05-15)"
   xmlns:inkscape="http://www.inkscape.org/namespaces/inkscape"
   xmlns:sodipodi="http://sodipodi.sourceforge.net/DTD/sodipodi-0.dtd"
   xmlns="http://www.w3.org/2000/svg"
   xmlns:svg="http://www.w3.org/2000/svg">
  <defs
     id="defs192" />
  <sodipodi:namedview
     id="namedview190"
     pagecolor="#ffffff"
     bordercolor="#666666"
     borderopacity="1.0"
     inkscape:showpageshadow="2"
     inkscape:pageopacity="0.0"
     inkscape:pagecheckerboard="0"
     inkscape:deskcolor="#d1d1d1"
     showgrid="false"
     inkscape:zoom="0.46354778"
     inkscape:cx="-119.72876"
     inkscape:cy="62.560973"
     inkscape:window-width="1920"
     inkscape:window-height="1080"
     inkscape:window-x="0"
     inkscape:window-y="0"
     inkscape:window-maximized="0"
     inkscape:current-layer="svg188" />
  <path
     d="M 750,25.194125 707.5743,342.15284 v 0 C 594.73902,330.11617 484.87741,324.0952 375,324.10573 265.12259,324.09523 155.26098,330.11091 42.42572,342.15284 v 0 L 0,25.194125 C 130.23501,5.6470351 260.47003,-0.40551494 375,0.02079506 489.52471,-0.40551494 619.75972,5.6470351 750,25.194125 Z"
     id="path182"
     style="stroke-width:0.526308;fill:#1b64d7;fill-opacity:1" />
  <g
     id="g1047"
     style="fill:#ffffff">
    <path
       style="stroke-width:0.526308;fill:#ffffff"
       d="m 588.31806,71.940845 h 4.15257 l 6.24728,10.67353 6.1315,-10.67353 h 4.06836 v 19.51551 h -3.09469 v -14.35769 l -5.85255,9.66828 h -2.70523 l -5.85255,-9.66828 v 14.35769 h -3.09469 z"
       id="path1043" />
    <path
       style="stroke-width:0.526308;fill:#ffffff"
       d="m 568.7657,71.940845 h 17.12608 v 2.84206 h -6.9578 v 16.67345 h -3.20522 v -16.67345 h -6.9578 v -2.84206 z"
       id="path184" />
  </g>
  <g
     id="g1039">
    <path
       style="stroke-width:0.526308;fill:#ffffff"
       d="m 549.22387,232.46491 c 39.39418,0.73683 59.3518,-16.83134 59.3518,-38.72051 0,-19.32604 -9.97881,-29.23643 -44.9099,-37.15211 -18.1629,-4.18941 -25.09438,-5.08414 -25.09438,-10.20512 0,-4.18941 5.54729,-7.05779 12.99982,-7.05779 12.11035,0 25.59964,4.17888 37.70473,11.16826 l 17.69975,-26.447 c -12.34193,-7.6841 -29.81011,-13.61033 -51.69927,-13.61033 -33.76795,0 -54.45187,14.7419 -55.01502,37.55736 -0.45263,18.38396 11.06827,31.07852 43.40992,37.04685 19.88919,3.66837 26.35226,5.88413 26.35226,11.25248 0,4.18941 -4.98941,7.13148 -15.23663,7.13148 -14.90505,0 -30.94693,-6.0736 -45.61515,-14.68927 l -18.11027,27.37856 c 14.89453,9.77881 38.13631,15.97346 58.16234,16.34714 z"
       id="path1033" />
    <path
       style="stroke-width:0.526308;fill:#ffffff"
       d="m 372.73687,112.48765 41.25732,112.94052 c 1.18946,3.0368 1.15261,6.42622 -0.5421,8.78935 -1.6105,2.24207 -4.76309,3.53153 -7.86305,3.53153 h -32.55217 l 0.0579,33.06269 h 38.60472 c 22.05233,0 34.98372,-7.33148 42.32046,-26.07332 l 50.9256,-132.17709 -42.9836,-0.0737 -22.1418,81.63043 h -1.97365 l -22.32074,-81.63043 z"
       id="path1031" />
    <path
       style="stroke-width:0.526308;fill:#ffffff"
       d="m 362.07387,112.48765 c -8.20515,0 -14.96822,1.3105 -20.05762,4.33151 -6.5157,3.86837 -10.79985,12.29983 -12.53666,16.33135 h -2.02103 l -3.02101,-20.66286 h -36.07844 v 117.60361 h 40.66259 v -53.83082 c 0,-17.47344 7.59989,-27.32067 23.55756,-27.32067 h 15.43663 v -36.45212 z"
       id="path1029" />
    <path
       style="stroke-width:0.526308;fill:#ffffff"
       d="m 280.94869,230.09126 h -49.87825 l -46.20988,-77.80944 v 77.80944 H 142.54537 V 71.940845 h 42.31519 v 73.198975 l 45.98883,-73.198975 h 49.22036 l -50.15192,75.725255 -0.005,2.07892 z"
       id="path186" />
  </g>
</svg>
