<?xml version="1.0" encoding="UTF-8" standalone="no"?>
<svg
   width="121.54426"
   height="37.385365"
   viewBox="0 0 106.95895 32.899999"
   fill="none"
   version="1.1"
   id="svg1"
   sodipodi:docname="Chloé (4).svg"
   inkscape:version="1.4.3 (0d15f75, 2025-12-25)"
   xmlns:inkscape="http://www.inkscape.org/namespaces/inkscape"
   xmlns:sodipodi="http://sodipodi.sourceforge.net/DTD/sodipodi-0.dtd"
   xmlns="http://www.w3.org/2000/svg"
   xmlns:svg="http://www.w3.org/2000/svg">
  <defs
     id="defs1" />
  <sodipodi:namedview
     id="namedview1"
     pagecolor="#ffffff"
     bordercolor="#000000"
     borderopacity="0.25"
     inkscape:showpageshadow="2"
     inkscape:pageopacity="0.0"
     inkscape:pagecheckerboard="0"
     inkscape:deskcolor="#d1d1d1"
     inkscape:zoom="7.092"
     inkscape:cx="56.260575"
     inkscape:cy="19.670051"
     inkscape:window-width="1920"
     inkscape:window-height="991"
     inkscape:window-x="-9"
     inkscape:window-y="-9"
     inkscape:window-maximized="1"
     inkscape:current-layer="svg1" />
  <path
     fill-rule="evenodd"
     clip-rule="evenodd"
     d="m 26.617863,29.5271 c -0.0532,0.0479 -0.109,0.098 -0.1648,0.1529 -1.9201,1.68 -5.3338,3.22 -9.6721,3.22 -9.1742,0 -16.78390002,-7.28 -16.78390002,-16.45 C -0.00293702,7.28 7.464463,0 16.780963,0 c 3.4137,0 6.8274,0.91 10.3122,3.5 0.4267,0.35 0.7112,0.7 0.7823,1.33 l 0.4267,5.95 -0.3556,0.21 c -0.2844,-0.91 -3.8404,-9.73 -11.1656,-9.73 -6.5429,0 -10.5966,7.14 -10.5966,15.19 0,8.05 3.627,15.12 10.5966,15.12 6.9696,0 11.1656,-7.63 12.0902,-9.45 l 0.3556,0.21 -2.2758,6.79 c -0.0526,0.1551 -0.1827,0.272 -0.3331,0.4071 z m 23.375,0.5729 V 17.36 c 0,-3.43 -2.845,-5.53 -6.898,-5.53 -2.845,0 -4.7654,1.05 -5.9033,2.59 V 0.14 h -0.4267 c -1.5646,1.68 -4.2671,3.5 -6.8274,3.92 v 0.35 h 1.8491 c 0.4267,0 0.4978,0.21 0.4978,0.63 v 24.71 c 0,0.84 -0.64,1.26 -1.1379,1.54 -0.4978,0.28 -0.9956,0.56 -0.9956,0.98 h 8.8898 c 0,-0.28 -0.3556,-0.49 -0.6401,-0.63 -0.7112,-0.28 -1.209,-0.56 -1.209,-1.4 V 17.36 c 0,-2.17 1.8491,-4.2 4.6223,-4.2 2.347,0 3.343,1.54 3.343,3.71 v 13.37 c 0,0.84 -0.498,1.12 -1.067,1.33 -0.355,0.14 -0.711,0.28 -0.711,0.63 h 8.534 c 0,-0.28 -0.355,-0.49 -0.64,-0.63 -0.782,-0.28 -1.28,-0.56 -1.28,-1.47 z m 3.769,1.0501 c 0.498,-0.28 1.138,-0.7 1.138,-1.54 v -24.57 c 0,-0.42 -0.071,-0.63 -0.427,-0.63 h -1.849 v -0.35 c 2.632,-0.42 5.192,-2.24 6.756,-3.92 h 0.427 v 29.96 c 0,0.84 0.498,1.12 1.209,1.4 0.285,0.14 0.64,0.35 0.64,0.63 h -8.89 c 0,-0.42 0.498,-0.7 0.996,-0.98 z m 40.751,-21.4901 0.072,-2e-4 v 2e-4 z m 0.072,-2e-4 V 9.31 c 1.991,-0.07 3.271,-1.68 3.271,-3.08 0,-0.98 -0.498,-1.82 -1.707,-2.17 l 0.071,-0.35 5.760997,1.4 c 0,2.5039 -3.720997,4.524 -7.395997,4.5498 z m 1.849,3.2202 c 4.408997,0 5.475997,4.48 5.475997,8.68 0,0.21 -0.214,0.35 -0.427,0.35 H 90.743863 c -0.213,0 -0.355,-0.14 -0.355,-0.35 0,-4.48 1.778,-8.68 6.045,-8.68 z m 0.782,18.9 c -4.836,0 -6.827,-3.92 -6.827,-8.4 0,-0.21 0.213,-0.35 0.426,-0.35 h 15.788997 c 0.213,0 0.355,-0.14 0.355,-0.35 0,-6.02 -4.48,-10.99 -10.524997,-10.99 -6.045,0 -11.024,4.9 -11.024,10.57 0,5.67 5.192,10.57 11.166,10.57 3.058,0 5.973997,-1.26 8.035997,-3.43 l -0.355,-0.21 c -2.063,1.75 -4.907997,2.59 -7.040997,2.59 z m -24.251,0 c -4.481,0 -6.045,-4.83 -6.045,-9.45 0,-4.62 1.564,-9.45 6.045,-9.45 4.48,0 6.045,4.83 6.045,9.45 -0.071,4.62 -1.565,9.45 -6.045,9.45 z m 0,1.12 c 6.045,0 11.023,-4.9 11.023,-10.57 0,-5.67 -4.978,-10.57 -11.023,-10.57 -6.045,0 -11.024,4.9 -11.024,10.57 -0.071,5.67 4.979,10.57 11.024,10.57 z"
     fill="#272727"
     id="path1" />
</svg>
