<svg xmlns="http://www.w3.org/2000/svg" height="800" width="1200" viewBox="-330.6 -75 2865.2 450"><path d="M1394 69V0h-168c-18 0-33.5 6.333-46.5 19S1160 47 1160 65v169c0 18 6.5 33.333 19.5 46 13 12.667 28.5 19 46.5 19h168v-71h-158v-43h158v-72h-158V69zM77 228V69h155V0H67C48.333 0 32.5 6.333 19.5 19S0 47 0 65v170c0 18 6.5 33.333 19.5 46 13 12.667 28.833 19 47.5 19h165v-72zM843 62c-.667-17.333-7.5-32-20.5-44S794.333 0 777 0H606v300h76V69h84v231h77zm1098 116c-.667-18-7.5-33.167-20.5-45.5-13-12.333-28.833-18.5-47.5-18.5h-94V69h153V0h-163c-18.667 0-34.5 6-47.5 18s-19.833 26.667-20.5 44v71c.667 8 2.667 15 6 21 4.667 9.333 11.333 16.667 20 22 11.333 6 25.333 9 42 9h93v43h-155v72h166c18 0 33.667-6.667 47-20 13.333-13.333 20.333-29.333 21-48zM1065 0l-63 219h-1L938 0h-83l96 300h100l98-300zm1139 69V0h-168c-18.667 0-34.5 6.333-47.5 19S1969 47 1969 65v169c0 18 6.5 33.333 19.5 46 13 12.667 28.833 19 47.5 19h168v-71h-159v-43h158v-72h-158V69zm-697 0h87v45h-87zm98 231h74l-63-117c14.667-2.667 27-9.5 37-20.5s15.333-24.833 16-41.5V62c-.667-17.333-7.5-32-20.5-44S1620.333 0 1603 0h-171v300h75V185h37zM462 172l29 88-75-55-75 55 28-88-75-54h93l28-89 30 89h92zM567 66c0-18-6.333-33.5-19-46.5S520.333 0 503 0H331c-18 0-33.167 6.5-45.5 19.5C273.167 32.5 267 48 267 66v168c0 18.667 6.167 34.333 18.5 47 12.333 12.667 27.5 19 45.5 19h172c17.333 0 32.333-6.5 45-19.5 12.667-13 19-28.5 19-46.5z"/></svg>