<?xml version="1.0" encoding="UTF-8"?>
<svg id="symbol-longchamp" version="1.1" viewBox="0 0 120 32" xmlns="http://www.w3.org/2000/svg">
 <path d="m9.058 7.76h-2.046v9.453h5.39v-1.326h-3.344z"/>
 <path d="m20.205 7.436c-2.187 0-3.965 2.243-3.965 5.009s1.778 5.009 3.965 5.009 3.965-2.243 3.965-5.009-1.778-5.009-3.965-5.009zm0 8.663c-1.086 0-1.975-1.637-1.975-3.64 0-2.018 0.889-3.64 1.975-3.64s1.975 1.637 1.975 3.64c0 2.004-0.889 3.64-1.975 3.64z"/>
 <path d="m61.474 15.069-1.637-0.931c-0.325 1.171-0.988 1.961-1.75 1.961-1.086 0-1.975-1.637-1.975-3.64 0-2.018 0.889-3.64 1.975-3.64 0.705 0 1.312 0.677 1.665 1.693l1.383-1.242c-0.734-1.101-1.82-1.806-3.048-1.806-2.187 0-3.965 2.243-3.965 5.009s1.778 5.009 3.965 5.009c1.439-0.014 2.695-0.974 3.386-2.413z"/>
 <path d="m45.714 13.22h1.171v2.102c-0.282 0.48-0.762 0.776-1.524 0.776-1.086 0-1.975-1.637-1.975-3.64 0-2.018 0.889-3.64 1.975-3.64 0.677 0 1.284 0.635 1.637 1.608l1.383-1.213c-0.734-1.072-1.806-1.764-3.019-1.764-2.187 0-3.965 2.243-3.965 5.009s1.778 5.009 3.965 5.009c1.157 0 2.455-0.621 3.443-1.608v-3.513h-3.104v0.875z"/>
 <path d="m34.554 12.839-5.079-5.742v10.145h1.566v-5.277l5.122 5.573v-9.792h-1.608z"/>
 <path d="m71.746 11.683h-3.316v-3.922h-1.891v9.425h1.891v-4.205h3.316v4.205h1.891v-9.425h-1.891z"/>
 <path d="m78.49 17.242h1.608l0.79-1.848h3.062l0.691 1.848h2.13l-4.078-10.074-4.205 10.074zm3.09-3.104 1.072-2.836 1.016 2.836z"/>
 <path d="m91.725 7.097v10.116h1.524v-4.995l2.596 3.175 2.37-3.132v4.952h1.947v-10.102l-4.19 5.46z"/>
 <path d="m109.658 7.76h-3.527v9.51h1.947v-2.737h1.594c1.778 0 3.217-1.51 3.217-3.386-0.014-1.877-1.453-3.386-3.231-3.386zm-0.042 5.376h-1.538v-4.007h1.538c0.79 0.254 1.383 1.044 1.383 1.989-0.014 0.945-0.593 1.778-1.383 2.018z"/>
 <path d="m68.628 22.053h0.607v2.935h-0.607z"/>
 <path d="m62.617 23.168c0-0.55-0.367-1.072-0.847-1.115h-2.116v2.935h0.621v-0.818h1.129l0.522 0.818h0.691l-0.607-0.974s0.607-0.296 0.607-0.847zm-1.044 0.479h-1.298v-1.058h1.298c0.212 0.085 0.367 0.282 0.367 0.522s-0.155 0.451-0.367 0.536z"/>
 <path d="m44.614 22.053h-2.116v2.935h0.621v-0.818h1.129c0.705 0 1.213-0.437 1.213-0.988 0-0.564-0.367-1.086-0.847-1.129zm-0.198 1.594h-1.298v-1.058h1.298c0.212 0.085 0.367 0.282 0.367 0.522 0.014 0.24-0.141 0.451-0.367 0.536z"/>
 <path d="m51.711 22.053-1.256 2.935h0.593l0.31-0.72h1.467l0.353 0.72h0.677l-1.383-2.935h-0.762zm-0.127 1.693 0.466-1.115 0.55 1.115z"/>
 <path d="m76.289 23.238c-1.002 0.042-0.945-0.254-0.945-0.325s-0.056-0.451 0.734-0.466c0.818 0 1.256 0.353 1.256 0.353l0.226-0.451c-0.593-0.339-1.284-0.31-1.383-0.31-0.085 0-1.467-0.042-1.383 0.917 0.071 0.959 1.524 0.818 1.961 0.818s0.409 0.437 0.381 0.466c-0.028 0.042-0.056 0.325-0.931 0.325s-1.256-0.437-1.256-0.437l-0.254 0.466s0.071 0.466 1.496 0.466 1.51-0.734 1.496-1.016c0-0.268-0.395-0.847-1.397-0.804z"/>
</svg>
