<?xml version="1.0" encoding="UTF-8" standalone="no"?>
<svg
   version="1.0"
   width="500"
   height="251.3071"
   viewBox="0 0 375 188.48032"
   preserveAspectRatio="xMidYMid"
   id="svg5"
   sodipodi:docname="Maui Jim logo.svg"
   inkscape:version="1.4 (86a8ad7, 2024-10-11)"
   xmlns:inkscape="http://www.inkscape.org/namespaces/inkscape"
   xmlns:sodipodi="http://sodipodi.sourceforge.net/DTD/sodipodi-0.dtd"
   xmlns="http://www.w3.org/2000/svg"
   xmlns:svg="http://www.w3.org/2000/svg">
  <defs
     id="defs5" />
  <sodipodi:namedview
     id="namedview5"
     pagecolor="#ffffff"
     bordercolor="#000000"
     borderopacity="0.25"
     inkscape:showpageshadow="2"
     inkscape:pageopacity="0.0"
     inkscape:pagecheckerboard="0"
     inkscape:deskcolor="#d1d1d1"
     inkscape:document-units="pt"
     inkscape:zoom="2.1629834"
     inkscape:cx="243.41379"
     inkscape:cy="113.03831"
     inkscape:window-width="1920"
     inkscape:window-height="1001"
     inkscape:window-x="-9"
     inkscape:window-y="-9"
     inkscape:window-maximized="1"
     inkscape:current-layer="svg5" />
  <g
     transform="matrix(0.03473687,0,0,-0.03473687,-0.06540446,188.53616)"
     fill="#000000"
     stroke="none"
     id="g5">
    <path
       d="m 6805,5416 c -130,-30 -285,-112 -435,-233 -194,-155 -504,-489 -682,-733 -328,-451 -498,-930 -459,-1290 18,-166 72,-238 210,-280 118,-37 244,-18 379,56 34,19 62,33 62,30 0,-3 -135,-220 -234,-375 l -22,-34 -309,-72 C 3015,1947 994,1286 213,818 30,708 -20,661 10,625 c 19,-23 52,-18 111,15 844,474 2942,1155 5124,1665 132,31 248,58 257,61 13,4 -11,-52 -80,-188 -164,-323 -267,-588 -337,-871 -50,-202 -65,-315 -72,-532 -4,-149 -2,-214 11,-301 34,-231 119,-399 230,-456 55,-28 125,-20 208,23 234,123 642,725 1047,1544 164,331 240,502 376,840 l 100,250 250,47 c 718,135 1622,276 2430,378 176,22 335,44 352,49 57,16 111,53 124,82 15,38 -8,74 -59,96 -34,14 -54,13 -252,-11 -757,-94 -1734,-252 -2650,-430 -69,-13 -126,-23 -127,-22 -1,1 27,91 62,201 35,110 72,226 80,258 14,50 22,60 55,77 54,28 180,130 286,232 l 90,87 -4,-140 c -4,-124 -3,-142 13,-159 10,-11 31,-20 46,-20 24,0 44,21 150,158 67,86 154,195 192,242 98,119 350,370 371,370 15,0 16,-6 10,-47 -10,-70 -46,-175 -110,-320 -85,-193 -95,-221 -88,-248 9,-37 38,-57 75,-53 28,2 39,11 64,50 113,178 156,241 237,350 105,142 276,348 288,348 9,0 -25,-101 -126,-372 -30,-83 -54,-164 -54,-185 0,-45 23,-83 50,-83 23,0 45,28 126,165 81,136 258,385 330,462 l 53,58 -25,-78 c -44,-140 -94,-425 -94,-533 0,-27 7,-51 21,-68 42,-53 126,-26 266,85 322,257 760,468 1203,579 138,34 167,53 176,111 7,43 -14,69 -55,69 -54,0 -421,-135 -721,-265 -278,-121 -542,-262 -669,-357 l -54,-41 6,94 c 11,161 92,427 163,530 53,77 47,131 -20,163 -45,21 -71,20 -123,-5 -48,-23 -121,-100 -221,-231 -36,-48 -68,-86 -69,-84 -2,1 11,43 27,92 54,158 41,234 -41,234 -29,0 -49,-9 -91,-44 -70,-57 -220,-229 -328,-376 -36,-50 -36,-51 10,105 32,109 33,112 16,147 -24,49 -63,65 -119,48 -56,-17 -189,-152 -422,-430 -194,-231 -283,-330 -295,-330 -10,0 -6,18 27,130 32,108 72,205 173,418 44,93 80,177 80,186 0,40 -65,69 -114,50 -9,-4 -42,-56 -73,-117 -66,-130 -224,-370 -343,-522 -76,-96 -268,-300 -276,-292 -2,1 14,88 35,192 32,159 62,363 74,500 3,45 72,78 229,110 46,9 88,52 88,90 0,82 -101,97 -276,41 -20,-6 -21,-3 -27,156 -16,423 -109,662 -289,743 -75,34 -199,42 -293,21 z m 206,-177 c 123,-42 183,-189 196,-484 3,-71 2,-183 -2,-248 l -7,-118 -59,-39 c -207,-141 -509,-429 -765,-730 -197,-233 -308,-346 -432,-446 -130,-103 -199,-140 -291,-156 -83,-14 -145,-3 -198,37 -48,37 -57,78 -50,229 10,219 60,392 187,651 87,178 230,401 366,570 107,132 400,434 504,518 222,179 424,258 551,216 z m 154,-1205 c -26,-176 -81,-437 -134,-632 -48,-175 -178,-582 -186,-582 -6,0 -802,-169 -892,-189 -46,-10 -83,-17 -83,-14 0,9 190,294 280,419 196,272 388,501 615,733 140,144 404,385 412,377 2,-2 -3,-52 -12,-112 z M 6770,2619 c 0,-5 -33,-92 -74,-192 C 6245,1311 5519,136 5327,209 c -33,13 -49,39 -80,131 -38,113 -51,243 -44,463 9,333 75,614 228,981 99,234 307,631 337,640 50,15 955,203 985,205 9,1 17,-4 17,-10 z"
       id="path1" />
    <path
       d="m 2900,5031 c -56,-18 -110,-54 -205,-138 -164,-147 -502,-506 -659,-701 -32,-40 -60,-71 -62,-70 -1,2 24,102 57,223 110,408 131,554 89,608 -29,36 -53,41 -102,19 C 1755,4856 1093,3882 511,2758 333,2414 134,1962 115,1858 c -8,-44 15,-99 50,-118 32,-17 112,-7 136,17 11,10 30,59 43,108 94,348 458,1117 808,1704 166,280 395,613 536,781 68,81 194,212 199,206 7,-7 -37,-209 -74,-336 -64,-225 -143,-425 -340,-870 -205,-463 -273,-646 -273,-736 0,-75 61,-115 123,-83 30,16 32,20 73,144 174,522 367,907 603,1205 160,202 661,760 683,760 17,0 12,-12 -252,-620 -354,-817 -564,-1478 -625,-1972 -28,-224 -18,-270 60,-308 49,-24 73,-25 102,-5 30,21 40,63 47,190 22,397 140,919 320,1427 127,358 284,719 526,1215 170,348 185,382 176,418 -11,42 -76,64 -136,46 z"
       id="path2" />
    <path
       d="m 8154,5020 c -51,-26 -91,-94 -100,-173 -6,-53 -5,-57 24,-86 64,-64 172,-19 228,95 26,54 27,58 13,97 -26,74 -95,102 -165,67 z"
       id="path3" />
    <path
       d="m 4625,4163 c -67,-17 -125,-109 -125,-198 0,-55 4,-64 40,-88 48,-33 108,-17 166,45 89,93 83,194 -12,234 -35,15 -37,15 -69,7 z"
       id="path4" />
    <path
       d="m 3019,3820 c -73,-12 -129,-47 -211,-131 -95,-98 -177,-220 -273,-409 -133,-263 -233,-524 -274,-714 -23,-106 -28,-256 -10,-320 16,-58 58,-96 107,-96 74,0 140,66 329,330 2,2 15,-9 30,-24 36,-39 86,-58 131,-50 90,16 252,125 324,219 l 42,53 17,-37 c 22,-51 62,-75 124,-75 68,0 138,39 217,122 38,39 64,59 66,52 3,-7 20,-29 38,-49 29,-32 38,-36 81,-36 31,0 66,9 98,25 51,26 190,156 282,264 l 49,59 1,-95 c 2,-201 73,-308 204,-308 101,0 166,44 218,148 48,96 55,129 37,157 -22,33 -40,31 -73,-7 -16,-18 -51,-57 -80,-86 -42,-44 -57,-53 -80,-50 -35,4 -53,39 -60,117 -12,126 54,416 134,596 48,108 52,146 19,179 -34,35 -71,33 -106,-4 -15,-16 -69,-109 -121,-207 -124,-238 -168,-311 -244,-409 -68,-86 -149,-164 -171,-164 -49,0 50,313 203,640 49,105 54,131 28,160 -25,27 -79,44 -103,31 -12,-7 -42,-68 -82,-168 -140,-353 -271,-610 -360,-704 -48,-51 -60,-59 -92,-59 -66,0 -72,54 -21,210 29,87 153,348 249,523 l 66,120 -20,26 c -23,32 -60,46 -96,37 -24,-6 -44,-41 -172,-304 -249,-510 -393,-721 -496,-725 -32,-2 -33,-1 -32,38 1,101 232,615 359,801 44,65 65,105 65,125 0,41 -39,79 -82,79 -29,1 -36,6 -53,43 -32,66 -105,94 -206,77 z m 101,-135 c 26,-31 24,-105 -5,-180 -76,-202 -457,-875 -564,-997 -60,-68 -88,-44 -76,65 56,505 388,1127 601,1127 17,0 37,-7 44,-15 z"
       id="path5" />
  </g>
</svg>
